<svg width="720" height="1024" viewBox="0 0 720 1024" fill="none" xmlns="http://www.w3.org/2000/svg">
<g clip-path="url(#clip0_2002_9599)">
<rect width="720" height="1024" fill="#1154D4"/>
<path d="M689.851 524.703L789.537 501.081C792.101 500.474 794.761 501.61 796.095 503.883L841.683 581.548C842.598 583.107 842.761 584.996 842.127 586.69L809.744 673.155C808.972 675.214 807.137 676.687 804.959 676.992L716.56 689.403C714.525 689.689 712.486 688.914 711.155 687.349L654.387 620.611C652.976 618.952 652.575 616.659 653.338 614.619L685.616 528.437C686.317 526.564 687.905 525.164 689.851 524.703Z" stroke="#BBE1FF" stroke-width="4"/>
<g opacity="0.5" filter="url(#filter0_f_2002_9599)">
<circle cx="275.5" cy="555.5" r="275.5" fill="#1A71F6"/>
</g>
<path d="M227.851 954.703L327.537 931.081C330.101 930.474 332.761 931.61 334.095 933.883L379.683 1011.55C380.598 1013.11 380.761 1015 380.127 1016.69L347.744 1103.15C346.972 1105.21 345.137 1106.69 342.959 1106.99L254.56 1119.4C252.525 1119.69 250.486 1118.91 249.155 1117.35L192.387 1050.61C190.976 1048.95 190.575 1046.66 191.338 1044.62L223.616 958.437C224.317 956.564 225.905 955.164 227.851 954.703Z" fill="#D9EDFF" fill-opacity="0.4"/>
<path d="M617.014 -6.05092L675.738 -16.3928C678.336 -16.8504 680.928 -15.5574 682.125 -13.2069L705.815 33.3043C706.634 34.9142 706.685 36.8078 705.953 38.4594L684.071 87.809C683.18 89.818 681.262 91.1792 679.072 91.3572L627.376 95.558C625.326 95.7246 623.334 94.8294 622.097 93.186L591.502 52.5402C590.193 50.8012 589.928 48.4896 590.81 46.4998L612.57 -2.57394C613.38 -4.40071 615.046 -5.70433 617.014 -6.05092Z" fill="#D9EDFF" fill-opacity="0.4"/>
<path d="M322.851 932.703L422.537 909.081C425.101 908.474 427.761 909.61 429.095 911.883L474.683 989.548C475.598 991.107 475.761 992.996 475.127 994.69L442.744 1081.15C441.972 1083.21 440.137 1084.69 437.959 1084.99L349.56 1097.4C347.525 1097.69 345.486 1096.91 344.155 1095.35L287.387 1028.61C285.976 1026.95 285.575 1024.66 286.338 1022.62L318.616 936.437C319.317 934.564 320.905 933.164 322.851 932.703Z" stroke="#BBE1FF" stroke-width="4"/>
<path d="M683.093 -29.258L741.816 -39.5999C744.414 -40.0574 747.006 -38.7645 748.203 -36.4139L771.893 10.0972C772.713 11.7071 772.763 13.6008 772.031 15.2524L750.149 64.602C749.258 66.611 747.341 67.9722 745.15 68.1502L693.455 72.3509C691.404 72.5175 689.412 71.6224 688.175 69.979L657.58 29.3332C656.271 27.5942 656.006 25.2826 656.889 23.2928L678.648 -25.781C679.458 -27.6077 681.124 -28.9114 683.093 -29.258Z" stroke="#BBE1FF" stroke-width="4"/>
<path d="M-18.3413 -25.2988L69.2761 -40.7293C71.874 -41.1868 74.466 -39.8939 75.6632 -37.5433L111.129 32.09C111.949 33.6999 112 35.5936 111.268 37.2452L78.7065 110.68C77.8157 112.689 75.8979 114.05 73.7075 114.228L-3.5226 120.504C-5.57272 120.67 -7.56529 119.775 -8.80228 118.132L-54.5335 57.3775C-55.8425 55.6385 -56.107 53.3269 -55.2248 51.3371L-22.7856 -21.8218C-21.9756 -23.6486 -20.3093 -24.9522 -18.3413 -25.2988Z" stroke="#BBE1FF" stroke-width="4"/>
</g>
<defs>
<filter id="filter0_f_2002_9599" x="-100" y="180" width="751" height="751" filterUnits="userSpaceOnUse" color-interpolation-filters="sRGB">
<feFlood flood-opacity="0" result="BackgroundImageFix"/>
<feBlend mode="normal" in="SourceGraphic" in2="BackgroundImageFix" result="shape"/>
<feGaussianBlur stdDeviation="50" result="effect1_foregroundBlur_2002_9599"/>
</filter>
<clipPath id="clip0_2002_9599">
<rect width="720" height="1024" fill="white"/>
</clipPath>
</defs>
</svg>
